<svg data-v-423bf9ae="" xmlns="http://www.w3.org/2000/svg" viewBox="0 0 630 112" class="iconLeft"><!----><!----><!----><g data-v-423bf9ae="" id="eb8240ef-1f9b-4cdb-93b6-1c4900c571d0" fill="#FFFFFF" transform="matrix(4.258339489801132,0,0,4.258339489801132,126.93792499052984,15.761374958557354)"><path d="M7.53 3.75L10.30 3.75L10.30 13.55L7.53 13.55L7.53 9.73L3.75 9.73L3.75 13.55L0.98 13.55L0.98 3.75L3.75 3.75L3.75 7.43L7.53 7.43L7.53 3.75ZM15.37 5.84L15.37 5.84Q17.26 5.84 18.26 6.70L18.26 6.70L18.26 6.70Q19.25 7.56 19.25 9.34L19.25 9.34L19.25 13.55L16.77 13.55L16.77 12.57L16.77 12.57Q16.20 13.68 14.53 13.68L14.53 13.68L14.53 13.68Q13.65 13.68 13.01 13.37L13.01 13.37L13.01 13.37Q12.36 13.06 12.03 12.54L12.03 12.54L12.03 12.54Q11.70 12.01 11.70 11.34L11.70 11.34L11.70 11.34Q11.70 10.26 12.53 9.67L12.53 9.67L12.53 9.67Q13.36 9.07 15.08 9.07L15.08 9.07L16.59 9.07L16.59 9.07Q16.52 7.87 14.98 7.87L14.98 7.87L14.98 7.87Q14.43 7.87 13.87 8.04L13.87 8.04L13.87 8.04Q13.31 8.22 12.92 8.53L12.92 8.53L12.03 6.72L12.03 6.72Q12.66 6.30 13.56 6.07L13.56 6.07L13.56 6.07Q14.46 5.84 15.37 5.84L15.37 5.84ZM15.27 12.00L15.27 12.00Q15.74 12.00 16.09 11.77L16.09 11.77L16.09 11.77Q16.44 11.55 16.59 11.12L16.59 11.12L16.59 10.46L15.44 10.46L15.44 10.46Q14.28 10.46 14.28 11.23L14.28 11.23L14.28 11.23Q14.28 11.58 14.55 11.79L14.55 11.79L14.55 11.79Q14.81 12.00 15.27 12.00L15.27 12.00ZM23.46 6.87L23.46 6.87Q23.87 6.36 24.52 6.10L24.52 6.10L24.52 6.10Q25.17 5.84 26.01 5.84L26.01 5.84L26.01 8.23L26.01 8.23Q25.65 8.19 25.41 8.19L25.41 8.19L25.41 8.19Q24.56 8.19 24.07 8.65L24.07 8.65L24.07 8.65Q23.59 9.11 23.59 10.07L23.59 10.07L23.59 13.55L20.93 13.55L20.93 5.96L23.46 5.96L23.46 6.87ZM32.54 3.16L35.20 3.16L35.20 13.55L32.66 13.55L32.66 12.80L32.66 12.80Q31.92 13.68 30.44 13.68L30.44 13.68L30.44 13.68Q29.40 13.68 28.55 13.20L28.55 13.20L28.55 13.20Q27.69 12.71 27.20 11.82L27.20 11.82L27.20 11.82Q26.70 10.92 26.70 9.74L26.70 9.74L26.70 9.74Q26.70 8.57 27.20 7.68L27.20 7.68L27.20 7.68Q27.69 6.79 28.55 6.31L28.55 6.31L28.55 6.31Q29.40 5.84 30.44 5.84L30.44 5.84L30.44 5.84Q31.79 5.84 32.54 6.62L32.54 6.62L32.54 3.16ZM31.00 11.56L31.00 11.56Q31.68 11.56 32.13 11.08L32.13 11.08L32.13 11.08Q32.58 10.60 32.58 9.74L32.58 9.74L32.58 9.74Q32.58 8.90 32.14 8.43L32.14 8.43L32.14 8.43Q31.70 7.95 31.00 7.95L31.00 7.95L31.00 7.95Q30.30 7.95 29.85 8.43L29.85 8.43L29.85 8.43Q29.40 8.90 29.40 9.74L29.40 9.74L29.40 9.74Q29.40 10.60 29.85 11.08L29.85 11.08L29.85 11.08Q30.30 11.56 31.00 11.56L31.00 11.56ZM36.90 13.55L36.90 3.16L39.56 3.16L39.56 13.55L36.90 13.55ZM46.75 5.96L49.28 5.96L46.00 13.86L46.00 13.86Q45.43 15.26 44.60 15.83L44.60 15.83L44.60 15.83Q43.78 16.39 42.59 16.39L42.59 16.39L42.59 16.39Q41.99 16.39 41.38 16.20L41.38 16.20L41.38 16.20Q40.77 16.02 40.39 15.71L40.39 15.71L41.31 13.85L41.31 13.85Q41.54 14.06 41.85 14.17L41.85 14.17L41.85 14.17Q42.17 14.29 42.49 14.29L42.49 14.29L42.49 14.29Q42.87 14.29 43.11 14.14L43.11 14.14L43.11 14.14Q43.36 13.99 43.53 13.65L43.53 13.65L40.28 5.96L43.01 5.96L44.87 10.60L46.75 5.96ZM66.89 3.75L69.54 3.75L66.36 13.55L63.39 13.55L61.52 7.59L59.56 13.55L56.59 13.55L53.41 3.75L56.27 3.75L58.24 10.01L60.31 3.75L62.86 3.75L64.83 10.07L66.89 3.75ZM74.42 13.68L74.42 13.68Q73.21 13.68 72.23 13.17L72.23 13.17L72.23 13.17Q71.25 12.67 70.69 11.77L70.69 11.77L70.69 11.77Q70.14 10.88 70.14 9.74L70.14 9.74L70.14 9.74Q70.14 8.62 70.69 7.73L70.69 7.73L70.69 7.73Q71.25 6.83 72.22 6.33L72.22 6.33L72.22 6.33Q73.19 5.84 74.42 5.84L74.42 5.84L74.42 5.84Q75.66 5.84 76.64 6.33L76.64 6.33L76.64 6.33Q77.62 6.83 78.16 7.72L78.16 7.72L78.16 7.72Q78.71 8.61 78.71 9.74L78.71 9.74L78.71 9.74Q78.71 10.88 78.16 11.77L78.16 11.77L78.16 11.77Q77.62 12.67 76.64 13.17L76.64 13.17L76.64 13.17Q75.66 13.68 74.42 13.68L74.42 13.68ZM74.42 11.56L74.42 11.56Q75.12 11.56 75.57 11.08L75.57 11.08L75.57 11.08Q76.02 10.60 76.02 9.74L76.02 9.74L76.02 9.74Q76.02 8.90 75.57 8.43L75.57 8.43L75.57 8.43Q75.12 7.95 74.42 7.95L74.42 7.95L74.42 7.95Q73.72 7.95 73.28 8.43L73.28 8.43L73.28 8.43Q72.83 8.90 72.83 9.74L72.83 9.74L72.83 9.74Q72.83 10.60 73.28 11.08L73.28 11.08L73.28 11.08Q73.72 11.56 74.42 11.56L74.42 11.56ZM82.47 6.87L82.47 6.87Q82.88 6.36 83.53 6.10L83.53 6.10L83.53 6.10Q84.18 5.84 85.02 5.84L85.02 5.84L85.02 8.23L85.02 8.23Q84.66 8.19 84.42 8.19L84.42 8.19L84.42 8.19Q83.57 8.19 83.08 8.65L83.08 8.65L83.08 8.65Q82.60 9.11 82.60 10.07L82.60 10.07L82.60 13.55L79.94 13.55L79.94 5.96L82.47 5.96L82.47 6.87ZM91.71 13.55L89.59 10.89L88.80 11.69L88.80 13.55L86.14 13.55L86.14 3.16L88.80 3.16L88.80 8.61L91.52 5.96L94.67 5.96L91.52 9.21L94.93 13.55L91.71 13.55ZM95.75 13.55L95.75 5.96L98.41 5.96L98.41 13.55L95.75 13.55ZM97.08 5.12L97.08 5.12Q96.35 5.12 95.90 4.72L95.90 4.72L95.90 4.72Q95.45 4.31 95.45 3.71L95.45 3.71L95.45 3.71Q95.45 3.11 95.90 2.70L95.90 2.70L95.90 2.70Q96.35 2.30 97.08 2.30L97.08 2.30L97.08 2.30Q97.80 2.30 98.25 2.68L98.25 2.68L98.25 2.68Q98.70 3.07 98.70 3.67L98.70 3.67L98.70 3.67Q98.70 4.30 98.25 4.71L98.25 4.71L98.25 4.71Q97.80 5.12 97.08 5.12L97.08 5.12ZM105.07 5.84L105.07 5.84Q106.48 5.84 107.34 6.68L107.34 6.68L107.34 6.68Q108.21 7.52 108.21 9.21L108.21 9.21L108.21 13.55L105.55 13.55L105.55 9.65L105.55 9.65Q105.55 8.09 104.30 8.09L104.30 8.09L104.30 8.09Q103.61 8.09 103.20 8.54L103.20 8.54L103.20 8.54Q102.79 8.99 102.79 9.88L102.79 9.88L102.79 13.55L100.13 13.55L100.13 5.96L102.66 5.96L102.66 6.79L102.66 6.79Q103.11 6.33 103.73 6.08L103.73 6.08L103.73 6.08Q104.34 5.84 105.07 5.84L105.07 5.84ZM115.50 5.96L118.03 5.96L118.03 12.17L118.03 12.17Q118.03 14.28 116.89 15.34L116.89 15.34L116.89 15.34Q115.74 16.39 113.58 16.39L113.58 16.39L113.58 16.39Q112.46 16.39 111.48 16.14L111.48 16.14L111.48 16.14Q110.50 15.89 109.82 15.40L109.82 15.40L110.78 13.54L110.78 13.54Q111.24 13.92 111.95 14.13L111.95 14.13L111.95 14.13Q112.66 14.35 113.34 14.35L113.34 14.35L113.34 14.35Q114.39 14.35 114.88 13.89L114.88 13.89L114.88 13.89Q115.37 13.43 115.37 12.52L115.37 12.52L115.37 12.26L115.37 12.26Q114.60 13.16 113.12 13.16L113.12 13.16L113.12 13.16Q112.11 13.16 111.26 12.71L111.26 12.71L111.26 12.71Q110.40 12.25 109.90 11.42L109.90 11.42L109.90 11.42Q109.40 10.58 109.40 9.49L109.40 9.49L109.40 9.49Q109.40 8.41 109.90 7.58L109.90 7.58L109.90 7.58Q110.40 6.75 111.26 6.29L111.26 6.29L111.26 6.29Q112.11 5.84 113.12 5.84L113.12 5.84L113.12 5.84Q114.74 5.84 115.50 6.89L115.50 6.89L115.50 5.96ZM113.75 11.05L113.75 11.05Q114.46 11.05 114.93 10.61L114.93 10.61L114.93 10.61Q115.40 10.18 115.40 9.49L115.40 9.49L115.40 9.49Q115.40 8.81 114.94 8.38L114.94 8.38L114.94 8.38Q114.48 7.95 113.75 7.95L113.75 7.95L113.75 7.95Q113.02 7.95 112.55 8.38L112.55 8.38L112.55 8.38Q112.08 8.81 112.08 9.49L112.08 9.49L112.08 9.49Q112.08 10.18 112.56 10.61L112.56 10.61L112.56 10.61Q113.04 11.05 113.75 11.05L113.75 11.05Z"></path></g><!----><g data-v-423bf9ae="" id="1e59f2ca-a981-4ec5-8f04-f1d72a71510c" transform="matrix(1.1111111111111112,0,0,1.1111111111111112,0.44444444444444287,0.44444444444444287)" stroke="none" fill="#FFFFFF"><path d="M74.744 12.5V0h-12.5v12.5h-25V0h-12.5v12.5H0V25h100V12.5zM12.5 37.5h75V50h-75zM12.5 62.5h75V75h-75zM75 100H12.5V87.5h75z"></path></g><!----></svg>